<svg xmlns="http://www.w3.org/2000/svg" width="236" height="57" version="1">
  <g fill="#2b97fa">
    <path d="M19 23l2 8h15l2-8h15l-3 8h5v5H36v8h21v4H36v9H21v-9H0v-4h21v-8H2v-5h4l-2-8h15zM2 6h19V0h15v6h19v4H36v7h21v4H0v-4h21v-7H2V6zM77 0v6h4l-5 16v35H65V38h-5l8-28h-8V6h5V0h12zm5 22v35h-5V22h5zm1-21h34v5H83V1zm34 50c0 3-3 6-5 6H84V30h33v21zm-1-29c0 3-2 5-5 5H84V8h32v14zM93 41h3v-7h-3v7zm0 11h3v-6h-3v6zm2-29h9l1-2v-8H95v10zm9 11v7h4v-7h-4zm2 18l2-1v-5h-4v6h2zM123 57V31h-3l4-15h-4l4-16h13l-4 13h4l-3 13h1v31h-12zm15 0h22l2-3 2 3h12l-9-12 9-13v-7h-11V10h2v11h10V6h-12V0h-12v6h-15v51zm12-47h3v15h-3V10zm0 22v-3h16l-5 8-4-5h-7zm6 14l-6 10V38l6 8zM181 2h14v12h6V0h14v14h4l2-3V2h14v11c0 3-2 6-5 6h-49V2zm0 55h14V26h41v-5h-55v36zm18-23h11v7h-12v5h12v11h14V46h12v-5h-12v-7h10v-5h-35v5z"/>
  </g>
</svg>