<?xml version="1.0" encoding="utf-8"?>
<!-- Generator: Adobe Illustrator 17.0.0, SVG Export Plug-In . SVG Version: 6.00 Build 0)  -->
<!DOCTYPE svg PUBLIC "-//W3C//DTD SVG 1.1//EN" "http://www.w3.org/Graphics/SVG/1.1/DTD/svg11.dtd">
<svg version="1.1" xmlns="http://www.w3.org/2000/svg" xmlns:xlink="http://www.w3.org/1999/xlink" x="0px" y="0px"
	 width="235.858px" height="57.177px" viewBox="0 0 235.858 57.177" enable-background="new 0 0 235.858 57.177"
	 xml:space="preserve">
<g id="图层_1" display="none">
	<rect x="-108.607" y="-153.8" display="inline" stroke="#000000" stroke-miterlimit="10" width="480" height="647"/>
</g>
<g id="图层_2">
	<g>
		<path fill="#2b97fa" d="M18.659,23.159l2.34,7.8h14.879l2.34-7.8h14.58l-2.4,7.8h4.86v4.56H35.579v8.159h21.359v4.56H35.579v8.879
			H21.299v-8.879H0v-4.56h21.299v-8.159H1.68v-4.56h4.8l-2.4-7.8H18.659z M1.68,5.58h19.62v-5.4h14.279v5.4h19.679v4.5H35.579v6.66
			h21.239v4.56H0.06v-4.56h21.239v-6.66H1.68V5.58z"/>
		<path fill="#2b97fa" d="M76.859,0.18v6.12h3.9l-4.98,15.899v34.799H65.04V37.678H60.06l8.16-27.359h-8.1v-4.02h4.62V0.18H76.859z
			 M81.719,21.599v35.579h-4.26V21.599H81.719z M83.219,1.2h33.838v4.56H83.219V1.2z M116.698,51.058c0,3.18-2.28,5.7-5.1,5.7
			H83.519V29.759h33.179V51.058z M116.218,21.779c0,3.12-2.28,5.7-5.16,5.7H84.059V7.979h32.159V21.779z M93.059,40.978h2.76v-6.66
			h-2.76V40.978z M93.059,52.198h2.76v-6.66h-2.76V52.198z M95.099,22.919h8.819c0.9,0,1.56-0.72,1.56-1.68v-8.7H95.099V22.919z
			 M104.458,34.318v6.66h3.06v-6.66H104.458z M106.018,52.198c0.84,0,1.5-0.78,1.5-1.68v-4.979h-3.06v6.66H106.018z"/>
		<path fill="#2b97fa" d="M123.48,57.058V31.198h-3.3l3.419-14.819h-3.419L124.32,0h12.239l-3.18,13.199h3.18l-2.88,13.08h1.8
			v30.779H123.48z M138.179,57.117h21.659l1.979-3.24l2.521,3.24h11.699l-8.88-11.699l8.7-13.859v-6.78h-11.22v-14.52h2.399v10.68
			h9.72V5.64h-12.119V0h-12v5.64h-14.459V57.117z M149.699,10.259h2.939v14.52h-2.939V10.259z M149.699,31.738v-2.4h15.899
			l-4.74,7.8l-4.079-5.4H149.699z M155.579,45.898l-5.88,9.72V38.278L155.579,45.898z"/>
		<path fill="#2b97fa" d="M181.14,1.86h13.979v12.299h6.18V0.24h13.979v13.919h3.96c1.2,0,2.22-1.74,2.22-3V1.86h13.92v11.159
			c0,3.12-2.521,5.7-5.7,5.7H181.14V1.86z M181.14,56.998h13.979V26.039h40.738v-4.56H181.14V56.998z M199.259,33.539h10.44v7.62
			h-12.06v4.56h12.06v11.28h13.979v-11.28h12v-4.56h-12v-7.62h10.44v-4.56h-34.859V33.539z"/>
	</g>
</g>
</svg>
