<svg version="1.1" id="图层_1" xmlns="http://www.w3.org/2000/svg" xmlns:xlink="http://www.w3.org/1999/xlink" x="0px" y="0px"
	 viewBox="0 0 47.3 11.5" style="enable-background:new 0 0 47.3 11.5;" xml:space="preserve">
 
	<path fill="#fff" d="M9.7,2.5c0,0,1,0.8,1.7,1.3C11.4,3.9,11.2,4,11,4H7.2l1.9,0.4c0,0.2-0.2,0.3-0.4,0.3C8.2,5.1,7.5,5.8,6.8,6.3h1.1l0.9-1.1
		c0,0,1,0.7,1.6,1.2c0,0.1-0.2,0.2-0.3,0.2H6.6v1.9h1.9l0.9-1.1c0,0,1,0.8,1.7,1.3c0,0.1-0.2,0.2-0.3,0.2H6.6v2.3
		c0,0.1-0.6,0.4-1.5,0.4H4.7V8.8H0.6L0.5,8.5h4.3V6.6H1.2L1.1,6.3h2.4C3.4,6.2,3.2,6.1,3.1,6c0-0.7-0.1-1.4-0.4-1.9l0.1,0
		c2.5,0.5,2.3,1.9,1.5,2.3h2.1C6.6,5.6,6.7,4.6,6.8,4H0.1L0,3.6h4.7V2.1H1.4L1.3,1.7h3.5V0.1L7,0.2c0,0.2-0.1,0.3-0.4,0.3v1.2h1.1
		l0.9-1.1c0,0,1,0.8,1.7,1.3c0,0.1-0.2,0.2-0.3,0.2H6.6v1.6h2.2L9.7,2.5z"/>
	<path fill="#fff" d="M16.9,3.2c-0.1,0.1-0.2,0.2-0.5,0.2c-0.3,0.6-0.7,1.2-1.2,1.8c2.4,1,1.2,2.9,0.2,2c0-0.4-0.1-0.9-0.3-1.3v5
		c0,0.1-0.5,0.5-1.3,0.5h-0.3V6.8c-0.5,0.4-1,0.7-1.6,1l-0.1-0.1c1.4-1.3,2.5-3.2,2.9-4.7h-2.5l-0.1-0.3h2.5l0.9-0.8L16.9,3.2z
		 M13.2,0c3.5,0.5,1.8,3.1,0.4,1.9C13.6,1.3,13.4,0.6,13.2,0L13.2,0z M16.5,1.4l-0.1-0.3h4.6L21.9,0c0,0,0.9,0.7,1.5,1.2
		c0,0.1-0.2,0.2-0.3,0.2H16.5z M23.4,6.4c-0.1,0.1-0.2,0.2-0.5,0.3V11c0,0.1-0.8,0.4-1.3,0.4h-0.3v-0.8h-3.2v0.4
		c0,0.2-0.7,0.5-1.3,0.5h-0.2v-6l1.6,0.6h3l0.7-0.8L23.4,6.4z M20.8,5.3V4.8h-2.1V5c0,0.1-0.7,0.5-1.3,0.5h-0.2V1.9l1.6,0.6h2
		l0.7-0.8l1.5,1.1c-0.1,0.1-0.2,0.2-0.5,0.3V5c0,0.1-0.8,0.3-1.4,0.3H20.8z M18.1,6.4v1.7h0.9V6.4H18.1z M18.1,10.2h0.9V8.4h-0.9
		V10.2z M20.8,4.5V2.9h-2.1v1.7H20.8z M20.4,6.4v1.7h0.9V6.4H20.4z M21.3,10.2V8.4h-0.9v1.8H21.3z"/>
	<path fill="#fff" d="M35,5.3c-0.1,0.1-0.2,0.2-0.5,0.2c-0.3,1.2-0.9,2.3-1.7,3.2c0.8,0.5,1.7,0.7,2.7,1l0,0.1c-0.7,0.2-1.2,0.7-1.5,1.5
		c-0.9-0.4-1.7-0.9-2.3-1.6c-0.9,0.7-2.2,1.3-3.8,1.6L28,11.3c1.4-0.6,2.4-1.4,3.2-2.4c-0.5-0.9-0.8-2-0.9-3.6h-0.5
		c0,1.9-0.4,4.4-2.4,6l-0.1-0.1c0.8-2,0.9-4.6,0.9-6.6v-1c-0.1,0-0.2,0-0.3,0c-0.3,0.5-0.7,0.9-1.2,1.4l0.8,0.3
		c0,0.1-0.1,0.2-0.4,0.2v5.4c0,0.1-0.7,0.5-1.4,0.5h-0.3V6.2c-0.4,0.4-0.9,0.7-1.4,1l-0.1-0.1c1-1.4,2-3.4,2.3-4.7
		c-0.7,0.5-1.4,0.9-2.2,1.2l-0.1-0.1c0.9-1,1.8-2.5,2.1-3.5L28,1.2c-0.1,0.1-0.2,0.2-0.5,0.2c-0.4,0.3-0.8,0.7-1.3,1l1.9,1V1.6
		l1.9,0.6h0.7V0.2l2,0.2c0,0.2-0.1,0.3-0.4,0.3v1.6h1l0.8-0.8l1.4,1.3c-0.1,0.1-0.2,0.1-0.5,0.1c-0.6,0.4-1.5,1-2.1,1.4l-0.1-0.1
		c0.1-0.4,0.3-1.1,0.5-1.6h-1v2.3h0.3l0.9-0.9L35,5.3z M29.8,4.9h0.9V2.6h-0.9v2V4.9z M30.5,5.3c0.3,1.2,0.7,2.1,1.3,2.7
		c0.5-0.8,0.8-1.7,1-2.7H30.5z"/>
	<path fill="#fff" d="M39,6.4c0,1.6-0.2,3.7-2.9,5L36,11.3c1.1-1.4,1.2-3.3,1.2-4.9V3.6l2,0.7H45l0.5-0.7c-0.2,0-0.5,0.1-0.8,0.1h-0.3V3.1h-5.3
		l-0.5,0.7L36.9,3c0.1-0.1,0.3-0.3,0.5-0.4v-2l2.1,0.2c0,0.2-0.1,0.3-0.4,0.3v1.7h1.8V0.1l2.2,0.2c0,0.2-0.1,0.3-0.4,0.3v2.2h1.8
		V0.6l2.2,0.2c0,0.2-0.1,0.3-0.4,0.3v2.2c0,0,0,0-0.1,0.1c0.3,0.3,0.8,0.7,1.1,1c0,0.1-0.2,0.2-0.3,0.2H39V6.4z M45.8,6.9
		c0,0,0.9,0.7,1.4,1.2c0,0.1-0.2,0.2-0.3,0.2h-3.4v2.7c0,0.1-0.5,0.4-1.5,0.4h-0.3V8.4H39L39,8h2.8v-2h-2.2l-0.1-0.3h5l0.8-1.1
		c0,0,0.9,0.7,1.4,1.2c0,0.1-0.2,0.2-0.3,0.2h-2.7v2H45L45.8,6.9z"/>
 
</svg>
