<svg xmlns="http://www.w3.org/2000/svg" version="1" viewBox="0 0 1024 1024">
  <path fill="#fff" d="M736 671c-8-8-12-18-12-30s4-22 12-31c9-8 19-12 31-12s22 4 30 12c9 9 13 19 13 31s-4 22-13 30c-8 8-18 13-30 13s-22-5-31-13zm-67 0c-8 8-18 13-30 13s-22-5-31-13c-8-8-12-18-12-30s4-22 12-31c9-8 19-12 31-12s22 4 30 12c9 9 13 19 13 31s-4 22-13 30zm0 128c-8 8-18 13-30 13s-22-5-31-13c-8-8-12-18-12-30s4-22 12-31c9-8 19-12 31-12s22 4 30 12c9 9 13 19 13 31s-4 22-13 30zm183-287c0-12 4-22 12-31 9-8 19-12 31-12s22 4 30 12c9 9 13 19 13 31s-4 22-13 30c-8 8-18 13-30 13s-22-5-31-13c-8-8-12-18-12-30zm-85 43c-12 0-22-5-31-13-8-8-12-18-12-30s4-22 12-31c9-8 19-12 31-12s22 4 30 12c9 9 13 19 13 31s-4 22-13 30c-8 8-18 13-30 13zm-85-43c0 12-4 22-13 30-8 8-18 13-30 13s-22-5-31-13c-8-8-12-18-12-30s4-22 12-31c9-8 19-12 31-12s22 4 30 12c9 9 13 19 13 31zm0-128c0 12-4 22-13 30-8 8-18 13-30 13s-22-5-31-13c-8-8-12-18-12-30s4-22 12-31c9-8 19-12 31-12s22 4 30 12c9 9 13 19 13 31zm115 30c-8 8-18 13-30 13s-22-5-31-13c-8-8-12-18-12-30s4-22 12-31c9-8 19-12 31-12s22 4 30 12c9 9 13 19 13 31s-4 22-13 30zM669 288c-8 8-18 12-30 12s-22-4-31-12c-8-8-12-18-12-30s4-22 12-31c9-8 19-12 31-12s22 4 30 12c9 9 13 19 13 31s-4 22-13 30zM480 925c-8-8-12-18-12-30s4-22 12-31c9-8 19-12 31-12s22 4 30 12c9 9 13 19 13 31s-4 22-13 30c-8 9-18 13-30 13s-22-4-31-13zm-97-241c-12 0-22-5-31-13-8-8-12-18-12-30s4-22 12-31c9-8 19-12 31-12s22 4 30 12c9 9 13 19 13 31s-4 22-13 30c-8 8-18 13-30 13zm128 128c-12 0-22-5-31-13-8-8-12-18-12-30s4-22 12-31c9-8 19-12 31-12s22 4 30 12c9 9 13 19 13 31s-4 22-13 30c-8 8-18 13-30 13zm0-128c-12 0-22-5-31-13-8-8-12-18-12-30s4-22 12-31c9-8 19-12 31-12s22 4 30 12c9 9 13 19 13 31s-4 22-13 30c-8 8-18 13-30 13zm0-129c-12 0-22-5-31-13-8-8-12-18-12-30s4-22 12-31c9-8 19-12 31-12s22 4 30 12c9 9 13 19 13 31s-4 22-13 30c-8 8-18 13-30 13zm-128 0c-12 0-22-5-31-13-8-8-12-18-12-30s4-22 12-31c9-8 19-12 31-12s22 4 30 12c9 9 13 19 13 31s-4 22-13 30c-8 8-18 13-30 13zM84 641c0-12 4-22 12-31 9-8 19-12 31-12s22 4 30 12c9 9 13 19 13 31s-4 22-13 30c-8 8-18 13-30 13s-22-5-31-13c-8-8-12-18-12-30zm171 43c-12 0-22-5-31-13-8-8-12-18-12-30s4-22 12-31c9-8 19-12 31-12s22 4 30 12c9 9 13 19 13 31s-4 22-13 30c-8 8-18 13-30 13zM127 555c-12 0-22-5-31-13-8-8-12-18-12-30s4-22 12-31c9-8 19-12 31-12s22 4 30 12c9 9 13 19 13 31s-4 22-13 30c-8 8-18 13-30 13zm97-13c-8-8-12-18-12-30s4-22 12-31c9-8 19-12 31-12s22 4 30 12c9 9 13 19 13 31s-4 22-13 30c-8 8-18 13-30 13s-22-5-31-13zM96 353c9-8 19-12 31-12s22 4 30 12c9 9 13 19 13 31s-4 22-13 30c-8 8-18 13-30 13s-22-5-31-13c-8-8-12-18-12-30s4-22 12-31zm159-12c12 0 22 4 30 12 9 9 13 19 13 31s-4 22-13 30c-8 8-18 13-30 13s-22-5-31-13c-8-8-12-18-12-30s4-22 12-31c9-8 19-12 31-12zm171 43c0 12-4 22-13 30-8 8-18 13-30 13s-22-5-31-13c-8-8-12-18-12-30s4-22 12-31c9-8 19-12 31-12s22 4 30 12c9 9 13 19 13 31zm54-31c9-8 19-12 31-12s22 4 30 12c9 9 13 19 13 31s-4 22-13 30c-8 8-18 13-30 13s-22-5-31-13c-8-8-12-18-12-30s4-22 12-31zm-12-95c0-12 4-22 12-31 9-8 19-12 31-12s22 4 30 12c9 9 13 19 13 31s-4 22-13 30c-8 8-18 12-30 12s-22-4-31-12c-8-8-12-18-12-30zm73-98c-8 8-18 12-30 12s-22-4-31-12c-8-8-12-18-12-30s4-22 12-31c9-8 19-12 31-12s22 4 30 12c9 9 13 19 13 31s-4 22-13 30z"/>
</svg>