<svg xmlns="http://www.w3.org/2000/svg" version="1" viewBox="0 0 1024 1024"> 
  <path fill="#fff" d="M287 354c8 8 12 18 12 30s-4 22-12 31c-9 8-19 12-31 12s-22-4-30-12c-8-9-13-19-13-31s5-22 13-30 18-13 30-13 22 5 31 13zm67 0c8-8 18-13 30-13s22 5 31 13c8 8 12 18 12 30s-4 22-12 31c-9 8-19 12-31 12s-22-4-30-12c-8-9-13-19-13-31s5-22 13-30zm0-128c8-8 18-13 30-13s22 5 31 13c8 8 12 18 12 30s-4 22-12 31c-9 8-19 12-31 12s-22-4-30-12c-8-9-13-19-13-31s5-22 13-30zM171 513c0 12-4 22-12 31-9 8-19 12-31 12s-22-4-30-12c-8-9-13-19-13-31s5-22 13-30c8-9 18-13 30-13s22 4 31 13c8 8 12 18 12 30zm85-43c12 0 22 4 31 13 8 8 12 18 12 30s-4 22-12 31c-9 8-19 12-31 12s-22-4-30-12c-8-9-13-19-13-31s5-22 13-30c8-9 18-13 30-13zm85 43c0-12 5-22 13-30 8-9 18-13 30-13s22 4 31 13c8 8 12 18 12 30s-4 22-12 31c-9 8-19 12-31 12s-22-4-30-12c-8-9-13-19-13-31zm0 128c0-12 5-22 13-30 8-9 18-13 30-13s22 4 31 13c8 8 12 18 12 30s-4 22-12 31c-9 8-19 12-31 12s-22-4-30-12c-8-9-13-19-13-31zm-115-30c8-9 18-13 30-13s22 4 31 13c8 8 12 18 12 30s-4 22-12 31c-9 8-19 12-31 12s-22-4-30-12c-8-9-13-19-13-31s5-22 13-30zm128 126c8-8 18-13 30-13s22 5 31 13c8 8 12 18 12 30s-4 22-12 31c-9 8-19 12-31 12s-22-4-30-12c-8-9-13-19-13-31s5-22 13-30zm189-637c8 8 12 18 12 30s-4 22-12 30c-9 8-19 12-31 12s-22-4-30-12-13-18-13-30 5-22 13-30c8-9 18-13 30-13s22 4 31 13zm97 241c12 0 22 5 31 13 8 8 12 18 12 30s-4 22-12 31c-9 8-19 12-31 12s-22-4-30-12c-8-9-13-19-13-31s5-22 13-30 18-13 30-13zM512 213c12 0 22 5 31 13 8 8 12 18 12 30s-4 22-12 31c-9 8-19 12-31 12s-22-4-30-12c-8-9-13-19-13-31s5-22 13-30 18-13 30-13zm0 128c12 0 22 5 31 13 8 8 12 18 12 30s-4 22-12 31c-9 8-19 12-31 12s-22-4-30-12c-8-9-13-19-13-31s5-22 13-30 18-13 30-13zm0 129c12 0 22 4 31 13 8 8 12 18 12 30s-4 22-12 31c-9 8-19 12-31 12s-22-4-30-12c-8-9-13-19-13-31s5-22 13-30c8-9 18-13 30-13zm128 0c12 0 22 4 31 13 8 8 12 18 12 30s-4 22-12 31c-9 8-19 12-31 12s-22-4-30-12c-8-9-13-19-13-31s5-22 13-30c8-9 18-13 30-13zm299-86c0 12-4 22-12 31-9 8-19 12-31 12s-22-4-30-12c-8-9-13-19-13-31s5-22 13-30 18-13 30-13 22 5 31 13c8 8 12 18 12 30zm-171-43c12 0 22 5 31 13 8 8 12 18 12 30s-4 22-12 31c-9 8-19 12-31 12s-22-4-30-12c-8-9-13-19-13-31s5-22 13-30 18-13 30-13zm128 129c12 0 22 4 31 13 8 8 12 18 12 30s-4 22-12 31c-9 8-19 12-31 12s-22-4-30-12c-8-9-13-19-13-31s5-22 13-30c8-9 18-13 30-13zm-97 13c8 8 12 18 12 30s-4 22-12 31c-9 8-19 12-31 12s-22-4-30-12c-8-9-13-19-13-31s5-22 13-30c8-9 18-13 30-13s22 4 31 13zm128 189c-9 8-19 12-31 12s-22-4-30-12c-8-9-13-19-13-31s5-22 13-30c8-9 18-13 30-13s22 4 31 13c8 8 12 18 12 30s-4 22-12 31zm-159 12c-12 0-22-4-30-12-8-9-13-19-13-31s5-22 13-30c8-9 18-13 30-13s22 4 31 13c8 8 12 18 12 30s-4 22-12 31c-9 8-19 12-31 12zm-171-43c0-12 5-22 13-30 8-9 18-13 30-13s22 4 31 13c8 8 12 18 12 30s-4 22-12 31c-9 8-19 12-31 12s-22-4-30-12c-8-9-13-19-13-31zm-54 31c-9 8-19 12-31 12s-22-4-30-12c-8-9-13-19-13-31s5-22 13-30c8-9 18-13 30-13s22 4 31 13c8 8 12 18 12 30s-4 22-12 31zm12 95c0 12-4 22-12 31-9 8-19 12-31 12s-22-4-30-12c-8-9-13-19-13-31s5-22 13-30 18-13 30-13 22 5 31 13c8 8 12 18 12 30zm-73 98c8-8 18-13 30-13s22 5 31 13c8 8 12 18 12 30s-4 22-12 31c-9 8-19 12-31 12s-22-4-30-12c-8-9-13-19-13-31s5-22 13-30z"/>
</svg>