<svg xmlns="http://www.w3.org/2000/svg" width="139" height="128" version="1">
  <path fill="#FFF" d="M134 65c0 10-13 18-18 27s-5 23-14 28-22-1-33-1c-10 0-23 6-32 1s-10-19-15-28S5 75 5 65c0-11 12-19 17-28s6-23 15-28 22 1 32 1c11 0 24-6 33-1s9 19 14 28 18 17 18 28z"/>
  <path fill="none" stroke="#418CE8" stroke-miterlimit="10" stroke-width="10" d="M134 65c0 10-13 18-18 27s-5 23-14 28-22-1-33-1c-10 0-23 6-32 1s-10-19-15-28S5 75 5 65c0-11 12-19 17-28s6-23 15-28 22 1 32 1c11 0 24-6 33-1s9 19 14 28 18 17 18 28z"/>
  <g>
    <path fill="#418CE8" stroke="#418CE8" stroke-miterlimit="10" stroke-width="2" d="M103 67c0 10-3 19-9 24-6 6-14 9-24 9-11 0-20-3-27-10S33 75 33 66c0-10 3-18 10-25a40 40 0 0 1 42-7l14 10-5 6c-4-4-8-6-12-8l-13-3c-5 0-9 1-14 4-4 2-8 5-10 9-3 4-4 9-4 13 0 8 3 14 8 20 6 5 13 8 21 8 6 0 12-2 16-5 5-3 7-8 8-14H74v-7h29z"/>
  </g>
</svg>